# xmcd
#
# Track frame offsets: 
#        150
#        23046
#        36935
#        47106
#        65253
#        82257
#        100045
#        119666
#        130967
#        149802
#
# Disc length: 2106 seconds
#
# Revision: 0
# Processed by: cddbd v1.5.2PL0 Copyright (c) Steve Scherf et al.
# Submitted via: ExactAudioCopy v0.99pb5
#
DISCID=9408380a
DTITLE=Steve Johnson - Devine State of Apathy
DYEAR=2002
DGENRE=Blues
TTITLE0=Gray Morning
TTITLE1=Plastic Menagerie
TTITLE2=Crow Jane
TTITLE3=January Winds
TTITLE4=Tired of Pretending
TTITLE5=Lonesome Road Blues
TTITLE6=Lack of Light
TTITLE7=Come On in My Kitchen
TTITLE8=Old Man Song
TTITLE9=Ode
EXTD=
EXTT0=
EXTT1=
EXTT2=
EXTT3=
EXTT4=
EXTT5=
EXTT6=
EXTT7=
EXTT8=
EXTT9=
PLAYORDER=
